<?xml version="1.0" encoding="utf-8"?>
<!-- Generator: Adobe Illustrator 22.1.0, SVG Export Plug-In . SVG Version: 6.00 Build 0)  -->
<svg version="1.1" id="Capa_1" xmlns="http://www.w3.org/2000/svg" xmlns:xlink="http://www.w3.org/1999/xlink" x="0px" y="0px"
	 viewBox="0 0 442 442" style="enable-background:new 0 0 442 442;" xml:space="preserve">
<style type="text/css">
	.st0{fill:#323232;}
</style>
<path class="st0" d="M439,46.3C409.2,16.4,369.5,0,327.2,0C285,0,245.3,16.4,215.4,46.3c-2.9,2.9-3.7,7.2-2.2,10.9
	c1.5,3.7,5.2,6.2,9.2,6.2c7.3,0,12.9,2.3,16.9,7.1c7.2,8.6,9.3,25.3,5.7,45.8c-3.4,19.3-10.2,37.4-20.3,54.1l-25-17.9c0,0,0,0,0,0
	l-24.7-17.7c-4.5-3.2-10.7-2.2-14,2.3c-3.2,4.5-2.2,10.7,2.3,14l15.1,10.8L163,177.5l-10.8-15.1c-3.2-4.5-9.5-5.5-14-2.3
	c-4.5,3.2-5.5,9.5-2.3,14l17.7,24.7l18.1,25.3c-17,10.5-35.6,17.6-55.5,21.1c-6.6,1.2-12.9,1.8-18.6,1.8c-11.4,0-20.6-2.4-26.4-6.9
	c-5.3-4.1-7.9-9.8-7.9-17.5c0-4-2.4-7.7-6.2-9.2c-3.7-1.5-8-0.7-10.9,2.2c-61.6,61.6-61.6,161.9,0,223.6c1.9,1.9,4.5,2.9,7.1,2.9
	c1,0,2-0.1,3-0.5c3.5-1.1,6.2-4.1,6.9-7.7c2.8-15,10-28.7,20.8-39.6c14.2-14.2,33.2-22.1,53.3-22.1c11.3,0,22.7,2.6,32.8,7.5
	c2.9,1.4,6.3,1.3,9.2-0.3c2.8-1.6,4.7-4.4,5.1-7.6c2.1-18.5,10.1-35.2,23.3-48.3c15.3-15.3,35.7-23.8,57.4-23.8
	c8.9,0,17.7,1.4,26.1,4.3c3.6,1.2,7.6,0.3,10.3-2.4c2.7-2.7,3.6-6.7,2.4-10.3c-10-29.5-2.5-61.5,19.5-83.5
	c13.1-13.1,29.8-21.2,48.3-23.3c3.2-0.4,6.1-2.3,7.6-5.1s1.7-6.3,0.3-9.2c-13.9-28.9-8-63.5,14.6-86.1C405,73.2,418.7,66,433.8,63.2
	c3.7-0.7,6.6-3.3,7.7-6.9C442.6,52.8,441.7,48.9,439,46.3z M380,69.9c-25.6,25.6-34.2,63.2-23.3,96.9c-18,4.3-34.2,13.5-47.5,26.8
	c-23.3,23.3-33.5,55.5-28.5,87.3c-5.2-0.8-10.4-1.2-15.6-1.2c-27,0-52.5,10.5-71.6,29.6c-13.3,13.3-22.4,29.5-26.8,47.5
	c-9.5-3.1-19.5-4.6-29.4-4.6c-25.5,0-49.4,9.9-67.5,27.9c-9.2,9.2-16.3,19.9-21,31.7C10.6,362.5,10.4,293,48.3,243.4
	c2.6,4.8,6.2,9,10.7,12.5c9.5,7.3,22.5,11,38.6,11c6.9,0,14.3-0.7,22.1-2.1c26-4.6,50.2-14.7,71.9-30c2.2-1.5,3.6-3.9,4.1-6.5
	s-0.2-5.3-1.7-7.5L174.8,194l20.3-20.3l26.6,19c2.2,1.6,4.9,2.2,7.5,1.7c2.6-0.5,5-2,6.5-4.2c14.8-21.3,24.6-45.1,29.1-70.5
	c4.8-27.1,1.3-48.6-10.1-62.1c-3.2-3.9-7-7-11.3-9.3C267.3,30,296.5,20,327.2,20c31,0,60.4,10.1,84.5,28.9
	C400,53.6,389.2,60.7,380,69.9z"/>
</svg>
